mastitorrents.com 
http://mastitorrents.com/forums/index.php


Info:

Genre............: comedy
Year.............: 2010
IMDb Link........: http://www.imdb.com
Source...........: DVD9 @ own (pirated from friend)
Ripper...........: Princeplain (Aamir) -DrC
Sample...........:

General

Format                           : AVI
Format/Info                      : Audio Video Interleave
File size                        : 697 MiB
Duration                         : 1h 44mn
Overall bit rate                 : 936 Kbps
Writing library                  : MPlayer

Video
Format                           : MPEG-4 Visual
Format profile                   : Streaming Video@L1
Format settings, BVOP            : Yes
Format settings, QPel            : Yes
Format settings, GMC             : No warppoints
Format settings, Matrix          : Default
Codec ID                         : XVID
Codec ID/Hint                    : XviD
Duration                         : 1h 44mn
Bit rate                         : 876 Kbps
Width                            : 608 pixels
Height                           : 256 pixels
Display aspect ratio             : 2.35
Frame rate                       : 23.976 fps
Resolution                       : 24 bits
Colorimetry                      : 4:2:0
Scan type                        : Progressive
Bits/(Pixel*Frame)               : 0.235
Stream size                      : 653 MiB (94%)
Writing library                  : XviD 50

Audio
Format                           : MPEG Audio
Format version                   : Version 2
Format profile                   : Layer 3
Codec ID                         : 55
Codec ID/Hint                    : MP3
Duration                         : 1h 44mn
Bit rate mode                    : Variable
Bit rate                         : 47.2 Kbps
Minimum bit rate                 : 48.0 Kbps
Channel(s)                       : 2 channels
Sampling rate                    : 22.05 KHz
Resolution                       : 16 bits
Stream size                      : 35.1 MiB (5%)
Alignment                        : Aligned on interleaves
Interleave, duration             : 26 ms (0.63 video frame)
Interleave, preload duration     : 542 ms
Writing library                  : LAME3.98r
Encoding settings                : ABR

Ripper Notes :-

Njoy